<svg width="32" height="28" viewBox="0 0 32 28" fill="none" xmlns="http://www.w3.org/2000/svg">
<path d="M26.1426 21.8703C26.1426 22.8982 25.188 23.765 24.0133 23.765H6.97463C5.79996 23.765 4.84529 22.8982 4.84529 21.8703V6.9615C4.84529 5.93366 5.79996 5.12866 6.97463 5.12866H16.9133V3.88733H6.97463C5.01729 3.88733 3.42529 5.25 3.42529 6.96266V21.8703C3.42529 23.583 5.01729 25.0063 6.97463 25.0063H24.012C25.9693 25.0063 27.5613 23.5818 27.5613 21.8703V13.2043H26.1413V21.8703H26.1426Z" fill="black"/>
<path d="M27.7427 3.69839C26.6707 2.75923 24.8001 2.75923 23.7267 3.69839L14.2027 12.0319C14.1121 12.1112 14.0467 12.2116 14.0161 12.3201L13.0134 15.8329C12.9534 16.0441 13.0241 16.2681 13.2001 16.4232C13.3347 16.5411 13.5161 16.6052 13.7014 16.6052C13.7587 16.6052 13.8161 16.5994 13.8734 16.5866L17.8894 15.7081C18.0147 15.6812 18.1281 15.6241 18.2187 15.5447L27.7427 7.21123C28.2787 6.74223 28.5747 6.11806 28.5747 5.45423C28.5747 4.79039 28.2801 4.16739 27.7427 3.69839ZM17.3547 14.5449L14.6774 15.1306L15.3467 12.7879L23.2254 5.89406L25.2334 7.65106L17.3547 14.5449ZM26.7387 6.33273L26.2374 6.77139L24.2294 5.01439L24.7307 4.57573C25.2667 4.10673 26.2027 4.10673 26.7387 4.57573C27.0067 4.81023 27.1547 5.12173 27.1547 5.45423C27.1547 5.78673 27.0067 6.09823 26.7387 6.33273Z" fill="black"/>
</svg>
